<svg width="25" height="25" viewBox="0 0 25 25" fill="none" xmlns="http://www.w3.org/2000/svg">
<path d="M2.16797 12.8556C2.16913 17.8053 5.74637 22.0197 10.605 22.7954V15.7634H8.06797V12.8556H10.608V10.642C10.4944 9.59317 10.8505 8.54782 11.5796 7.78952C12.3087 7.03122 13.3353 6.63856 14.381 6.71804C15.1315 6.73023 15.8802 6.79749 16.621 6.91927V9.39341H15.357C14.9218 9.33606 14.4843 9.48066 14.1677 9.78648C13.8512 10.0923 13.6897 10.5262 13.729 10.966V12.8556H16.5L16.057 15.7644H13.729V22.7954C18.9834 21.9599 22.6681 17.1315 22.1135 11.8083C21.5589 6.48498 16.9593 2.53034 11.6468 2.8093C6.33433 3.08826 2.16881 7.50315 2.16797 12.8556Z" fill="#F5F8FB"/>
</svg>
