<svg width="25" height="25" viewBox="0 0 25 25" fill="none" xmlns="http://www.w3.org/2000/svg">
<path d="M23.7135 3.21717C23.3042 2.90895 22.6611 2.86485 21.9963 3.10183H21.9952C21.296 3.35092 2.20212 10.6221 1.42483 10.9192C1.28345 10.9628 0.04874 11.3718 0.175923 12.2829C0.28946 13.1043 1.28182 13.4445 1.40299 13.4838L6.25724 14.9594C6.57929 15.9112 7.76652 19.4228 8.02907 20.1729C8.19283 20.6406 8.45975 21.2551 8.92754 21.3816C9.33802 21.5221 9.74632 21.3937 10.0105 21.2095L12.9783 18.7656L17.7692 22.0828L17.8833 22.1434C18.2086 22.2713 18.5203 22.3353 18.8178 22.3353C19.0476 22.3353 19.2681 22.297 19.4788 22.2204C20.1966 21.9588 20.4837 21.3515 20.5138 21.2827L24.0924 4.76842C24.3107 3.88642 24.0072 3.43767 23.7135 3.21717ZM10.5383 15.5497L8.9008 19.4266L7.26325 14.5805L19.8178 6.34197L10.5383 15.5497Z" fill="#F5F8FB"/>
</svg>
